<?xml version="1.0" encoding="utf-8"?>
<!-- Generator: Adobe Illustrator 20.0.0, SVG Export Plug-In . SVG Version: 6.00 Build 0)  -->
<svg version="1.1" id="Calque_1" xmlns="http://www.w3.org/2000/svg" xmlns:xlink="http://www.w3.org/1999/xlink" x="0px" y="0px"
	 viewBox="0 0 1000 1000" style="enable-background:new 0 0 1000 1000;" xml:space="preserve">
<style type="text/css">
	.st0{fill:#FFFFFF;}
</style>
<g>
	<path class="st0" d="M270.3,500c0,126.9,102.8,229.7,229.7,229.7S729.7,626.9,729.7,500S626.9,270.3,500,270.3
		S270.3,373.1,270.3,500z"/>
	<path class="st0" d="M500,193.8c16.8,0,30.6-13.8,30.6-30.6V40.6c0-16.8-13.8-30.6-30.6-30.6c-16.8,0-30.6,13.8-30.6,30.6v122.5
		C469.4,180,483.2,193.8,500,193.8z"/>
	<path class="st0" d="M500,806.3c-16.8,0-30.6,13.8-30.6,30.6v122.5c0,16.8,13.8,30.6,30.6,30.6c16.8,0,30.6-13.8,30.6-30.6V836.9
		C530.6,820,516.8,806.3,500,806.3z"/>
	<path class="st0" d="M959.4,469.4H836.9c-16.8,0-30.6,13.8-30.6,30.6c0,16.8,13.8,30.6,30.6,30.6h122.5c16.8,0,30.6-13.8,30.6-30.6
		C990,483.2,976.2,469.4,959.4,469.4z"/>
	<path class="st0" d="M193.8,500c0-16.8-13.8-30.6-30.6-30.6H40.6C23.8,469.4,10,483.2,10,500s13.8,30.6,30.6,30.6h122.5
		C180,530.6,193.8,516.8,193.8,500z"/>
	<path class="st0" d="M239.7,284.1c6.1,6.1,13.8,9.2,21.4,9.2s15.3-3.1,21.4-9.2c12.3-12.3,12.3-30.6,0-42.9l-87.3-87.3
		c-12.3-12.3-30.6-12.3-42.9,0s-12.3,30.6,0,42.9L239.7,284.1z"/>
	<path class="st0" d="M760.3,715.9c-12.3-12.3-30.6-12.3-42.9,0s-12.3,30.6,0,42.9l87.3,87.3c6.1,6.1,13.8,9.2,21.4,9.2
		s15.3-3.1,21.4-9.2c12.3-12.3,12.3-30.6,0-42.9L760.3,715.9z"/>
	<path class="st0" d="M738.9,291.8c7.7,0,15.3-3.1,21.4-9.2l87.3-87.3c12.3-12.3,12.3-30.6,0-42.9s-30.6-12.3-42.9,0l-88.8,87.3
		c-12.3,12.3-12.3,30.6,0,42.9C722,288.7,729.7,291.8,738.9,291.8z"/>
	<path class="st0" d="M239.7,715.9l-87.3,87.3c-12.3,12.3-12.3,30.6,0,42.9c6.1,6.1,13.8,9.2,21.4,9.2s15.3-3.1,21.4-9.2l87.3-87.3
		c12.3-12.3,12.3-30.6,0-42.9C271.8,705.2,251.9,705.2,239.7,715.9z"/>
</g>
</svg>
