<?xml version="1.0" encoding="utf-8"?>
<!-- Generator: Adobe Illustrator 20.0.0, SVG Export Plug-In . SVG Version: 6.00 Build 0)  -->
<svg version="1.1" id="Calque_1" xmlns="http://www.w3.org/2000/svg" xmlns:xlink="http://www.w3.org/1999/xlink" x="0px" y="0px"
	 viewBox="0 0 948.8 970.8" style="enable-background:new 0 0 948.8 970.8;" xml:space="preserve">
<style type="text/css">
	.st0{fill:#FFFFFF;}
</style>
<g>
	<g transform="translate(0.000000,511.000000) scale(0.100000,-0.100000)">
		<path class="st0" d="M7649.2,4130.4c-578.5,463.9-1090.1,725.4-1774.9,908.7c-376,100.4-478.5,96.1-580.1-25.1
			c-103.7-123.6-85.2-229.6,93.1-529.7C6113,3273.4,6152.9,1855,5499,614.7c-170.2-325.9-589.7-851.3-887.1-1113.6
			c-773.3-675.7-1750.7-1025.5-2732.6-975.7c-411.1,22.5-1028.6,157.9-1351.7,295.6c-136.1,58.2-250.7,85.6-305.6,71.4
			c-95.9-27.1-198.8-134.4-220.2-236.7c-33-157.2,384.4-946.2,746.1-1417.4C988.2-3075,1697.2-3695.8,2067.3-3916
			c604.1-356.4,1424.2-614.4,2149.5-672.5c421.7-35.6,1215.4,33.9,1622.4,139.6c635.4,167.8,1227.8,453.5,1767.8,856.2
			c421.2,317.5,938.6,898.3,1213.2,1369c514.6,879.8,727.5,1815.2,653,2854c-19.8,278.9-77.5,671.4-127.8,872.7
			C9135.1,2328.8,8717.6,3092,8128.8,3728C8085.1,3773.3,7870.1,3957.8,7649.2,4130.4z M8479.8-1701.8
			c-169.4-335.2-663-974.7-946.9-1231C6080.3-4238.5,4059.5-4448,2402-3465.9c-439.1,260.8-1040.8,804.6-1323,1196.1
			c-114.2,156-214.1,308.6-225.8,335.7c-15.1,38.5,64.6,36.1,292.7-4.8c1281.5-241,2596.6,70.4,3653.4,873.9
			c329,248.7,804.1,779,1025.1,1139.7c737.3,1222.1,875.7,2740.2,366.4,4045c-105,264.3-105.3,269-16.1,237.1
			c183.3-63.5,570.3-263.4,801-414C8866.9,2721.5,9507.9,312.8,8479.8-1701.8z"/>
	</g>
</g>
</svg>
