<?xml version="1.0" encoding="utf-8"?>
<!-- Generator: Adobe Illustrator 20.0.0, SVG Export Plug-In . SVG Version: 6.00 Build 0)  -->
<svg version="1.1" id="Calque_1" xmlns:sketch="http://www.bohemiancoding.com/sketch/ns"
	 xmlns="http://www.w3.org/2000/svg" xmlns:xlink="http://www.w3.org/1999/xlink" x="0px" y="0px" viewBox="0 0 32 32"
	 style="enable-background:new 0 0 32 32;" xml:space="preserve">
<style type="text/css">
	.st0{fill:#FFFFFF;}
</style>
<title>cold</title>
<desc>Created with Sketch.</desc>
<path sketch:type="MSShapeGroup" class="st0" d="M17,14.3V7.5l3.2-3.3c0.4-0.4,0.4-1,0-1.4c-0.4-0.4-1-0.4-1.4,0L17,4.7V1
	c0-0.5-0.4-1-1-1c-0.6,0-1,0.4-1,1v3.7l-1.8-1.8c-0.4-0.4-1-0.4-1.4,0c-0.4,0.4-0.4,1,0,1.4L15,7.5v6.7l-5.9-3.4L7.9,6.4
	C7.8,5.9,7.2,5.6,6.7,5.7C6.2,5.9,5.9,6.4,6,7l0.7,2.5L3.5,7.6C3,7.4,2.4,7.5,2.1,8C1.9,8.5,2,9.1,2.5,9.4l3.2,1.9l-2.5,0.7
	c-0.5,0.1-0.9,0.7-0.7,1.2c0.1,0.5,0.7,0.9,1.2,0.7l4.4-1.2L14,16l-5.9,3.4l-4.4-1.2c-0.5-0.1-1.1,0.2-1.2,0.7
	c-0.1,0.5,0.2,1.1,0.7,1.2l2.5,0.7l-3.2,1.8C2,22.9,1.9,23.5,2.1,24c0.3,0.5,0.9,0.6,1.4,0.4l3.2-1.9L6,25c-0.1,0.5,0.2,1.1,0.7,1.2
	c0.5,0.1,1.1-0.2,1.2-0.7l1.2-4.4l5.8-3.4v6.8l-3.2,3.3c-0.4,0.4-0.4,1,0,1.4c0.4,0.4,1,0.4,1.4,0l1.8-1.8V31c0,0.5,0.4,1,1,1
	c0.6,0,1-0.4,1-1v-3.6l1.8,1.8c0.4,0.4,1,0.4,1.4,0c0.4-0.4,0.4-1,0-1.4L17,24.5v-6.8l5.9,3.4l1.3,4.5c0.1,0.5,0.7,0.8,1.2,0.7
	c0.5-0.1,0.9-0.7,0.7-1.2l-0.7-2.5l3.1,1.8c0.5,0.3,1.1,0.1,1.4-0.4c0.3-0.5,0.1-1.1-0.4-1.4l-3.1-1.8l2.5-0.7
	c0.5-0.1,0.9-0.7,0.7-1.2c-0.1-0.5-0.7-0.9-1.2-0.7l-4.5,1.1L18,16l5.9-3.4l4.5,1.1c0.5,0.1,1.1-0.2,1.2-0.7
	c0.1-0.5-0.2-1.1-0.7-1.2l-2.5-0.7l3.1-1.8C30,9.1,30.1,8.5,29.9,8c-0.3-0.5-0.9-0.6-1.4-0.4l-3.1,1.8L26,6.9
	c0.1-0.5-0.2-1.1-0.7-1.2c-0.5-0.1-1.1,0.2-1.2,0.7l-1.3,4.5L17,14.3L17,14.3z"/>
</svg>
