<?xml version="1.0" encoding="utf-8"?>
<!-- Generator: Adobe Illustrator 20.0.0, SVG Export Plug-In . SVG Version: 6.00 Build 0)  -->
<svg version="1.1" id="Calque_1" xmlns:sketch="http://www.bohemiancoding.com/sketch/ns"
	 xmlns="http://www.w3.org/2000/svg" xmlns:xlink="http://www.w3.org/1999/xlink" x="0px" y="0px" viewBox="0 0 32 32"
	 style="enable-background:new 0 0 32 32;" xml:space="preserve">
<style type="text/css">
	.st0{opacity:0.1;}
	.st1{fill:#FFFFFF;}
</style>
<title>drop</title>
<desc>Created with Sketch.</desc>
<g id="flatten" sketch:type="MSPage" class="st0">
	<g id="z-copy" transform="translate(-36.000000, -4.000000)" sketch:type="MSArtboardGroup">
		<g id="drop" transform="translate(36.000000, 4.000000)" sketch:type="MSLayerGroup">
			<path sketch:type="MSShapeGroup" class="st1" d="M4,20c0-6.3,5.3-9,11-18.3C15.5,1,16.5,1,17,1.7c5.7,9.3,11,12,11,18.3
				c0,6.6-5.4,12-12,12S4,26.6,4,20z M15,5c-2.3,2.9-7.4,10.1-7.5,10.3c-1,1.6-1.4,3-1.4,4.7c0,5.5,4.5,10,10,10s10-4.5,10-10
				c0-1.7-0.4-3-1.4-4.6C24.5,15.2,19.3,8,17.1,5C16.5,4.3,15.5,4.3,15,5z M16,27.5c0,0.5-0.7,0.5-1.1,0.4C11.3,27.5,8.5,24.7,8,21
				c0-0.3-0.1-1,0.4-1S9,21.1,9,21.1c0.5,3,2.8,5.4,5.8,5.8C14.9,27,16,27,16,27.5z"/>
		</g>
	</g>
</g>
</svg>
