<?xml version="1.0" encoding="utf-8"?>
<!-- Generator: Adobe Illustrator 21.0.1, SVG Export Plug-In . SVG Version: 6.00 Build 0)  -->
<svg version="1.1" id="Calque_1" xmlns="http://www.w3.org/2000/svg" xmlns:xlink="http://www.w3.org/1999/xlink" x="0px" y="0px"
	 viewBox="0 0 90 72.6" style="enable-background:new 0 0 90 72.6;" xml:space="preserve">
<style type="text/css">
	.st0{fill:#FFFFFF;}
</style>
<g>
	<path class="st0" d="M55.9,36.5c0,6-4.9,11-10.9,11s-10.9-5-10.9-11s4.9-11,10.9-11S55.9,30.3,55.9,36.5z"/>
	<g>
		<path class="st0" d="M13.2,36.5c0-10.6,5.2-19.9,13.3-25.6l-1.4-1.8C16.5,15.2,11,25.3,11,36.7c0,11.2,5.4,21.1,13.8,27.3l1.4-1.8
			C18.3,56.1,13.2,47,13.2,36.5z"/>
		<path class="st0" d="M79,36.5c0-11.2-5.5-21.3-14.1-27.4l-1.3,1.8c7.9,5.7,13.2,15.1,13.2,25.6c0,10.4-5.1,19.5-12.8,25.4l1.4,1.8
			C73.6,57.5,79,47.6,79,36.5z"/>
		<path class="st0" d="M87.8,36.5c0,13.9-6.8,26.4-17.2,34.2l1.4,1.8c10.8-8.3,18-21.4,18-36.1c0-15-7.4-28.2-18.6-36.3L70,1.8
			C80.9,9.6,87.8,22.2,87.8,36.5z"/>
		<path class="st0" d="M2.2,36.5c0-14.2,7.1-26.9,17.7-34.7L18.5,0C7.3,8.3,0,21.5,0,36.5c0,14.8,7.2,27.9,18.3,36.1l1.4-1.8
			C9,63,2.2,50.6,2.2,36.5z"/>
		<path class="st0" d="M24.1,36.5c0-7,3.5-13.2,8.9-16.9l-1.4-1.8c-5.9,4.2-9.8,11-9.8,18.6c0,7.5,3.8,14.3,9.3,18.5l1.4-1.8
			C27.4,49.2,24.1,43.2,24.1,36.5z"/>
		<path class="st0" d="M68.1,36.5c0-7.6-3.9-14.4-9.6-18.6l-1.4,1.8c5.2,3.8,8.7,9.9,8.7,16.8c0,6.8-3.3,12.8-8.2,16.5l1.3,1.8
			C64.4,50.4,68.1,44,68.1,36.5z"/>
	</g>
</g>
</svg>
