<?xml version="1.0" encoding="utf-8"?>
<!-- Generator: Adobe Illustrator 20.0.0, SVG Export Plug-In . SVG Version: 6.00 Build 0)  -->
<svg version="1.1" id="Calque_1" xmlns:sketch="http://www.bohemiancoding.com/sketch/ns"
	 xmlns="http://www.w3.org/2000/svg" xmlns:xlink="http://www.w3.org/1999/xlink" x="0px" y="0px" viewBox="0 0 32 32"
	 style="enable-background:new 0 0 32 32;" xml:space="preserve">
<style type="text/css">
	.st0{fill:#FFFFFF;}
</style>
<title>sun</title>
<desc>Created with Sketch.</desc>
<g id="flatten" sketch:type="MSPage">
	<g id="z-copy" transform="translate(-4.000000, -68.000000)" sketch:type="MSArtboardGroup">
		<g id="sun" transform="translate(4.000000, 68.000000)" sketch:type="MSLayerGroup">
			<path sketch:type="MSShapeGroup" class="st0" d="M10.8,28.6L10.8,28.6c-0.8-0.3-1.4-0.4-2.5-0.3c-1.1,0.1-1.6,0.1-2.3-0.1
				c-0.5-0.2-0.9-0.5-1.3-0.9C4.3,26.9,4,26.5,3.8,26c-0.3-0.7-0.3-1.2-0.1-2.3c0.1-1.1,0.1-1.7-0.3-2.5c-0.3-0.6-0.6-1.1-1.1-1.6
				c-0.1-0.1-0.2-0.2-0.4-0.3C2,19.4,1.6,19.1,1.5,19c-1-0.9-1.5-1.7-1.5-3s0.5-2.1,1.5-3c0.1-0.1,0.5-0.4,0.4-0.3
				c0.2-0.1,0.3-0.2,0.4-0.3c0.5-0.5,0.9-0.9,1.1-1.6C3.8,10,3.8,9.4,3.7,8.3C3.6,7.1,3.6,6.7,3.8,6C4,5.5,4.3,5.1,4.7,4.7
				C5.1,4.3,5.5,4,6,3.8c0.7-0.3,1.2-0.3,2.3-0.1c1.1,0.1,1.7,0.1,2.5-0.3c0.6-0.3,1.1-0.6,1.6-1.1c0.1-0.1,0.2-0.2,0.3-0.4
				C12.6,2,12.9,1.6,13,1.5c0.9-1,1.7-1.5,3-1.5s2.1,0.5,3,1.5c0.1,0.1,0.4,0.5,0.3,0.4c0.1,0.2,0.2,0.3,0.3,0.4
				c0.5,0.5,0.9,0.9,1.6,1.1c0.8,0.3,1.4,0.4,2.5,0.3c1.1-0.1,1.6-0.1,2.3,0.1c0.5,0.2,0.9,0.5,1.3,0.9C27.7,5.1,28,5.5,28.2,6
				c0.3,0.7,0.3,1.2,0.1,2.3c-0.1,1.1-0.1,1.7,0.3,2.5c0.3,0.6,0.6,1.1,1.1,1.6c0.1,0.1,0.2,0.2,0.4,0.3c-0.1-0.1,0.3,0.2,0.4,0.3
				c1,0.9,1.5,1.7,1.5,3s-0.5,2.1-1.5,3c-0.1,0.1-0.5,0.4-0.4,0.3c-0.2,0.1-0.3,0.2-0.4,0.3c-0.5,0.5-0.9,0.9-1.1,1.6
				c-0.3,0.8-0.4,1.4-0.3,2.5c0.1,1.1,0.1,1.6-0.1,2.3c-0.2,0.5-0.5,0.9-0.9,1.3c-0.4,0.4-0.8,0.7-1.3,0.9c-0.7,0.3-1.2,0.3-2.3,0.1
				c-1.1-0.1-1.7-0.1-2.5,0.3c-0.6,0.3-1.1,0.6-1.6,1.1c-0.1,0.1-0.2,0.2-0.3,0.4c0.1-0.1-0.2,0.3-0.3,0.4c-0.9,1-1.7,1.5-3,1.5
				s-2.1-0.5-3-1.5c-0.1-0.1-0.4-0.5-0.3-0.4c-0.1-0.2-0.2-0.3-0.3-0.4C11.9,29.2,11.4,28.8,10.8,28.6L10.8,28.6z M11.2,27.7
				c2.7,1.1,2.4,3.3,4.8,3.3s2.2-2.2,4.8-3.3c2.7-1.1,4.1,0.7,5.8-1.1s0-3.1,1.1-5.8c1.1-2.7,3.3-2.4,3.3-4.8s-2.2-2.2-3.3-4.8
				c-1.1-2.7,0.7-4.1-1.1-5.8s-3.1,0-5.8-1.1S18.4,1,16,1s-2.2,2.2-4.8,3.3S7.1,3.7,5.4,5.4s0,3.1-1.1,5.8S1,13.6,1,16
				s2.2,2.2,3.3,4.8s-0.7,4.1,1.1,5.8S8.5,26.6,11.2,27.7L11.2,27.7z M16,26c-5.5,0-10-4.5-10-10S10.5,6,16,6s10,4.5,10,10
				S21.5,26,16,26L16,26z M16,24c4.4,0,8-3.6,8-8s-3.6-8-8-8s-8,3.6-8,8S11.6,24,16,24L16,24z"/>
		</g>
	</g>
</g>
</svg>
