<?xml version="1.0" encoding="utf-8"?>
<!-- Generator: Adobe Illustrator 20.0.0, SVG Export Plug-In . SVG Version: 6.00 Build 0)  -->
<svg version="1.1" id="Calque_1" xmlns:sketch="http://www.bohemiancoding.com/sketch/ns"
	 xmlns="http://www.w3.org/2000/svg" xmlns:xlink="http://www.w3.org/1999/xlink" x="0px" y="0px" viewBox="0 0 32 32"
	 style="enable-background:new 0 0 32 32;" xml:space="preserve">
<style type="text/css">
	.st0{opacity:0.1;}
	.st1{fill:#FFFFFF;}
</style>
<title>temperature</title>
<desc>Created with Sketch.</desc>
<g id="flatten" sketch:type="MSPage" class="st0">
	<g id="z-copy" transform="translate(-68.000000, -4.000000)" sketch:type="MSArtboardGroup">
		<g id="temperature" transform="translate(68.000000, 4.000000)" sketch:type="MSLayerGroup">
			<path sketch:type="MSShapeGroup" class="st1" d="M10,11.8c-3,2-5,5.4-5,9.2c0,6.1,4.9,11,11,11s11-4.9,11-11c0-3.9-2-7.3-5-9.2V6
				c0-3.3-2.7-6-6-6c-3.3,0-6,2.7-6,6V11.8L10,11.8L10,11.8z M20,12.9c3,1.5,5,4.5,5,8.1c0,5-4,9-9,9s-9-4-9-9c0-3.5,2-6.6,5-8.1V6
				c0-2.2,1.8-4,4-4c2.2,0,4,1.8,4,4V12.9L20,12.9L20,12.9z M14,13.8c-2.9,0.9-5,3.5-5,6.7c0,3.9,3.1,7,7,7s7-3.1,7-7
				c0-3.2-2.1-5.8-5-6.7V6c0-1.1-0.9-2-2-2c-1.1,0-2,0.9-2,2V13.8L14,13.8L14,13.8z M17,14.6c2.8,0.5,5,2.9,5,5.9c0,3.3-2.7,6-6,6
				s-6-2.7-6-6c0-3,2.2-5.4,5-5.9V6c0-0.6,0.4-1,1-1c0.6,0,1,0.4,1,1V14.6L17,14.6L17,14.6z M17,24c0,0.5-1,0.5-1,0.5
				c-2.2,0-4-1.8-4-4c0,0,0-1,0.5-1s0.5,0.6,0.5,1c0,1,1.5,3,3,3C16.7,23.5,17,23.5,17,24L17,24z"/>
		</g>
	</g>
</g>
</svg>
